#N canvas 402 63 891 584 10;
#X obj 422 509 / 100;
#X obj 422 531 outlet;
#X obj 422 487 line 0 1;
#X obj 372 277 delay 100;
#X obj 375 322 i;
#X obj 374 368 pack f f;
#X msg 268 406 0 \, \$1 \$2;
#X obj 267 362 pack f f;
#X obj 373 232 t f f;
#X obj 537 233 t f f;
#X obj 279 183 random 100;
#X msg 755 258 0;
#X obj 410 44 loadbang;
#X msg 603 112 set \$1;
#X msg 410 117 set \$1;
#X obj 580 46 inlet;
#X obj 527 46 inlet;
#X obj 146 113 sel -1;
#X msg 146 134 1;
#X obj 141 233 random 100;
#X msg 242 137 0;
#X obj 671 206 spigot;
#X obj 671 228 random 100;
#X obj 734 151 sel -1;
#X msg 735 176 1;
#X obj 484 143 three;
#X obj 482 316 delay 100;
#X obj 484 350 i;
#X obj 456 234 t f f;
#X obj 357 92 \$1;
#X obj 410 93 \$2;
#X obj 447 95 \$3;
#X text 352 17 creation args \$1 length \$2 start pt \$3 end pt;
#X obj 141 169 spigot;
#X msg 206 134 0;
#X obj 141 92 t b b;
#X obj 279 151 t b b;
#X text 322 150 y pts;
#X obj 256 75 t b b b;
#X msg 776 181 0;
#X obj 755 226 spigot 1;
#X obj 201 169 spigot 1;
#X obj 722 90 t b b;
#X obj 410 66 t b b b;
#X obj 256 51 t b b b b;
#X text 326 51 time;
#X obj 256 17 inlet;
#X text 139 72 start pt;
#X text 721 73 end pt;
#X obj 477 46 inlet;
#X floatatom 355 138 5 0 0 0 - - -, f 5;
#X floatatom 431 149 5 0 0 0 - - -, f 5;
#X floatatom 392 146 5 0 0 0 - - -, f 5;
#X obj 385 44 bng 15 250 50 0 empty empty empty 17 7 0 10 -262144 -1
-1;
#X floatatom 467 265 5 0 0 0 - - -, f 5;
#X floatatom 508 265 5 0 0 0 - - -, f 5;
#X floatatom 555 271 5 0 0 0 - - -, f 5;
#X obj 373 209 f;
#X obj 456 211 f;
#X obj 537 210 f;
#X obj 312 270 bng 15 250 50 0 empty empty empty 17 7 0 10 -262144
-1 -1;
#X obj 375 404 unpack f f;
#X obj 485 375 pack f f;
#X obj 484 403 unpack f f;
#X connect 0 0 1 0;
#X connect 2 0 0 0;
#X connect 3 0 4 0;
#X connect 3 0 26 0;
#X connect 4 0 5 0;
#X connect 5 0 61 0;
#X connect 6 0 2 0;
#X connect 7 0 6 0;
#X connect 8 0 7 1;
#X connect 8 1 3 1;
#X connect 9 0 62 1;
#X connect 10 0 4 1;
#X connect 11 0 27 1;
#X connect 12 0 43 0;
#X connect 13 0 11 0;
#X connect 14 0 20 0;
#X connect 15 0 13 0;
#X connect 16 0 14 0;
#X connect 17 0 18 0;
#X connect 17 0 34 0;
#X connect 18 0 33 1;
#X connect 19 0 7 0;
#X connect 20 0 41 0;
#X connect 21 0 22 0;
#X connect 22 0 27 1;
#X connect 23 0 24 0;
#X connect 23 0 39 0;
#X connect 24 0 21 1;
#X connect 25 0 54 0;
#X connect 25 0 57 1;
#X connect 25 1 55 0;
#X connect 25 1 58 1;
#X connect 25 2 56 0;
#X connect 25 2 59 1;
#X connect 26 0 27 0;
#X connect 27 0 62 0;
#X connect 28 0 5 1;
#X connect 28 1 26 1;
#X connect 29 0 25 0;
#X connect 29 0 50 0;
#X connect 30 0 14 0;
#X connect 30 0 17 0;
#X connect 30 0 52 0;
#X connect 31 0 13 0;
#X connect 31 0 23 0;
#X connect 31 0 51 0;
#X connect 33 0 19 0;
#X connect 34 0 41 1;
#X connect 35 0 33 0;
#X connect 35 1 20 0;
#X connect 35 1 60 0;
#X connect 36 0 10 0;
#X connect 38 0 35 0;
#X connect 38 1 36 0;
#X connect 38 2 42 0;
#X connect 39 0 40 1;
#X connect 40 0 11 0;
#X connect 41 0 7 0;
#X connect 42 0 21 0;
#X connect 42 1 40 0;
#X connect 43 0 30 0;
#X connect 43 1 31 0;
#X connect 43 2 29 0;
#X connect 44 0 38 0;
#X connect 44 1 57 0;
#X connect 44 2 58 0;
#X connect 44 3 59 0;
#X connect 46 0 44 0;
#X connect 49 0 25 0;
#X connect 53 0 43 0;
#X connect 57 0 8 0;
#X connect 58 0 28 0;
#X connect 59 0 9 0;
#X connect 60 0 3 0;
#X connect 61 0 2 0;
#X connect 61 1 2 1;
#X connect 62 0 63 0;
#X connect 63 0 2 0;
#X connect 63 1 2 1;
