#N canvas 91 71 897 566 10;
#X obj 82 84 bng 15 250 50 0 empty empty empty 17 7 0 10 -262144 -1
-1;
#X obj 174 141 dac~;
#X obj 123 205 array max \$0-tablesize;
#X obj 247 129 array set \$0-tablesize;
#X obj 285 373 array define \$0-tablesize 6;
#X obj 235 415 array define \$0-recordL;
#X obj 270 434 array define \$0-recordR;
#X obj 88 282 array size \$0-recordL;
#X obj 88 302 array size \$0-recordR;
#X obj 88 541 soundfiler;
#X obj 82 180 tabwrite~ \$0-recordL;
#X obj 231 180 tabwrite~ \$0-recordR;
#X obj 88 404 \$0, f 4;
#X obj 88 384 bng 15 250 50 0 empty empty empty 17 7 0 10 -262144 -1
-1;
#X obj 88 364 delay;
#X obj 88 323 t b f;
#X obj 120 343 + 10;
#X obj 82 139 t b b;
#X obj 123 256 * 44.1;
#X msg 88 508 write -wave -bytes 4 -normalize samples/\$1.wav \$2-recordL
\$2-recordR;
#N canvas 460 149 733 401 soundmaker 0;
#X obj 188 148 bng 15 250 50 0 empty empty empty 17 7 0 10 -262144
-1 -1;
#X obj 271 148 bng 15 250 50 0 empty empty empty 17 7 0 10 -262144
-1 -1;
#X obj 346 150 bng 15 250 50 0 empty empty empty 17 7 0 10 -262144
-1 -1;
#X obj 429 150 bng 15 250 50 0 empty empty empty 17 7 0 10 -262144
-1 -1;
#X obj 190 188 poc_02 1;
#X obj 502 150 bng 15 250 50 0 empty empty empty 17 7 0 10 -262144
-1 -1;
#X obj 585 150 bng 15 250 50 0 empty empty empty 17 7 0 10 -262144
-1 -1;
#X obj 254 112 t b b b b b b;
#X obj 531 234 pack f f f f f f;
#X obj 142 124 t b b b;
#X obj 531 292 outlet;
#X obj 431 316 outlet~;
#X obj 204 306 outlet~;
#X obj 48 266 outlet;
#X obj 102 264 outlet;
#X obj 168 68 inlet;
#X obj 204 270 *~ 1;
#X obj 431 273 *~ 1;
#X obj 273 188 poc_02 2;
#X obj 349 190 poc_02 3;
#X obj 431 189 poc_02 5;
#X obj 505 190 poc_02 3;
#X obj 587 189 poc_02 5, f 24;
#X connect 0 0 4 0;
#X connect 1 0 18 0;
#X connect 2 0 19 0;
#X connect 3 0 20 0;
#X connect 4 0 16 0;
#X connect 4 1 17 0;
#X connect 4 2 8 0;
#X connect 5 0 21 0;
#X connect 6 0 22 0;
#X connect 7 0 9 0;
#X connect 7 1 1 0;
#X connect 7 2 2 0;
#X connect 7 3 3 0;
#X connect 7 4 5 0;
#X connect 7 5 6 0;
#X connect 8 0 10 0;
#X connect 9 0 13 0;
#X connect 9 1 14 0;
#X connect 9 2 0 0;
#X connect 15 0 7 0;
#X connect 16 0 12 0;
#X connect 17 0 11 0;
#X connect 18 0 16 0;
#X connect 18 1 17 0;
#X connect 18 2 8 1;
#X connect 19 0 16 0;
#X connect 19 1 17 0;
#X connect 19 2 8 2;
#X connect 20 0 16 0;
#X connect 20 1 17 0;
#X connect 20 2 8 3;
#X connect 21 0 16 0;
#X connect 21 1 17 0;
#X connect 21 2 8 4;
#X connect 22 0 16 0;
#X connect 22 1 17 0;
#X connect 22 2 8 5;
#X restore 82 104 pd soundmaker;
#N canvas 0 23 450 300 counter 0;
#X obj 120 113 i;
#X obj 166 96 + 1;
#X msg 120 168 0;
#X obj 120 145 sel 127;
#X msg 120 188 127;
#X obj 166 205 i;
#X obj 120 79 t b;
#X obj 166 234 outlet;
#X obj 120 54 inlet;
#X msg 239 220 set \$1;
#X msg 239 96 0;
#X obj 295 175 outlet;
#X connect 0 0 3 0;
#X connect 1 0 0 1;
#X connect 2 0 0 1;
#X connect 3 0 2 0;
#X connect 3 0 4 0;
#X connect 3 1 1 0;
#X connect 3 1 5 0;
#X connect 4 0 5 0;
#X connect 5 0 7 0;
#X connect 5 0 9 0;
#X connect 6 0 0 0;
#X connect 8 0 6 0;
#X connect 9 0 10 0;
#X connect 10 0 0 1;
#X connect 10 0 11 0;
#X restore 88 446 pd counter;
#X obj 88 424 t b f;
#X obj 88 466 pack f f;
#X obj 82 40 loadbang;
#X obj 82 63 delay 100;
#X msg 88 487 \$1 \$2;
#X floatatom 291 222 15 0 0 0 - - -, f 15;
#X obj 123 230 min 10000;
#X obj 264 46 delay 1000;
#X obj 188 67 spigot;
#X obj 227 36 tgl 15 0 empty empty empty 17 7 0 10 -262144 -1 -1 0
1;
#X obj 291 248 bng 15 250 50 0 empty empty empty 17 7 0 10 -262144
-1 -1;
#X obj 183 35 \$1;
#X obj 183 10 loadbang;
#X msg 384 27 \; pd dsp 1;
#X msg 258 8 1;
#X connect 0 0 20 0;
#X connect 2 0 27 0;
#X connect 2 0 28 0;
#X connect 2 1 32 0;
#X connect 12 0 22 0;
#X connect 13 0 12 0;
#X connect 13 0 29 0;
#X connect 14 0 13 0;
#X connect 15 0 14 0;
#X connect 15 1 16 0;
#X connect 16 0 14 1;
#X connect 17 0 10 0;
#X connect 17 1 11 0;
#X connect 18 0 7 0;
#X connect 18 0 8 0;
#X connect 19 0 9 0;
#X connect 20 0 17 0;
#X connect 20 1 2 0;
#X connect 20 2 10 0;
#X connect 20 2 1 0;
#X connect 20 3 11 0;
#X connect 20 3 1 1;
#X connect 20 4 3 0;
#X connect 21 0 23 0;
#X connect 21 1 31 0;
#X connect 22 0 21 0;
#X connect 22 1 23 1;
#X connect 23 0 26 0;
#X connect 24 0 25 0;
#X connect 25 0 0 0;
#X connect 26 0 19 0;
#X connect 28 0 15 0;
#X connect 28 0 18 0;
#X connect 29 0 30 0;
#X connect 30 0 0 0;
#X connect 31 0 30 1;
#X connect 33 0 30 1;
#X connect 34 0 33 0;
#X connect 34 0 35 0;
#X connect 34 0 36 0;
#X connect 36 0 31 0;
