#N canvas 0 23 1008 648 10;
#X obj 732 427 i;
#X obj 83 374 adsr, f 13;
#X obj 84 496 env~;
#X obj 184 373 adsr, f 13;
#X obj 185 495 env~;
#X obj 570 375 adsr, f 13;
#X obj 571 436 env~;
#X obj 462 375 adsr, f 13;
#X floatatom 455 631 5 0 0 0 - - -, f 5;
#X msg 732 462 samples/\$1.wav;
#X floatatom 779 444 5 0 0 0 - - -, f 5;
#X obj 137 342 three;
#X obj 235 342 three;
#X obj 510 340 three;
#X obj 613 341 three;
#N canvas 0 23 450 278 (subpatch) 0;
#X obj 2 1 bng 15 250 50 0 empty empty empty 17 7 0 10 -262144 -1 -1
;
#X obj 10 187 scale;
#X floatatom 110 3 5 0 100 0 lo - -, f 5;
#X floatatom 110 19 5 0 100 0 hi - -, f 5;
#X floatatom 51 19 5 0 10000 0 range - -, f 5;
#X obj 3 117 random 100;
#X obj -16 -24 inlet;
#X obj 10 209 outlet;
#X obj 3 149 f;
#X obj 58 149 f;
#X obj 89 150 f;
#X obj 48 -23 inlet;
#X obj 100 -23 inlet;
#X obj 148 -24 inlet;
#X obj 188 -5 loadbang;
#X msg 181 33 0;
#X msg 228 31 100;
#X connect 0 0 5 0;
#X connect 1 0 7 0;
#X connect 2 0 9 0;
#X connect 3 0 10 0;
#X connect 4 0 1 3;
#X connect 5 0 8 0;
#X connect 6 0 0 0;
#X connect 8 0 1 0;
#X connect 9 0 1 1;
#X connect 10 0 1 2;
#X connect 11 0 4 0;
#X connect 11 0 1 3;
#X connect 12 0 2 0;
#X connect 13 0 3 0;
#X connect 14 0 15 0;
#X connect 14 0 16 0;
#X connect 15 0 2 0;
#X connect 16 0 3 0;
#X coords 0 1 100 -1 150 35 1 0 0;
#X restore 81 220 graph;
#N canvas 0 23 450 278 (subpatch) 0;
#X obj 2 1 bng 15 250 50 0 empty empty empty 17 7 0 10 -262144 -1 -1
;
#X obj 10 187 scale;
#X floatatom 110 3 5 0 100 0 lo - -, f 5;
#X floatatom 110 19 5 0 100 0 hi - -, f 5;
#X floatatom 30 19 8 0 10000 0 range - -, f 8;
#X obj 3 117 random 100;
#X obj -16 -24 inlet;
#X obj 10 209 outlet;
#X obj 3 149 f;
#X obj 58 149 f;
#X obj 89 150 f;
#X obj 48 -23 inlet;
#X obj 100 -23 inlet;
#X obj 148 -24 inlet;
#X obj 188 -5 loadbang;
#X msg 181 33 0;
#X msg 228 31 100;
#X connect 0 0 5 0;
#X connect 1 0 7 0;
#X connect 2 0 9 0;
#X connect 3 0 10 0;
#X connect 4 0 1 3;
#X connect 5 0 8 0;
#X connect 6 0 0 0;
#X connect 8 0 1 0;
#X connect 9 0 1 1;
#X connect 10 0 1 2;
#X connect 11 0 4 0;
#X connect 12 0 2 0;
#X connect 13 0 3 0;
#X connect 14 0 15 0;
#X connect 14 0 16 0;
#X connect 15 0 2 0;
#X connect 16 0 3 0;
#X coords 0 1 100 -1 150 35 1 0 0;
#X restore 100 260 graph;
#N canvas 0 23 450 278 (subpatch) 0;
#X obj 2 1 bng 15 250 50 0 empty empty empty 17 7 0 10 -262144 -1 -1
;
#X obj 10 187 scale;
#X floatatom 110 3 5 0 100 0 lo - -, f 5;
#X floatatom 110 19 5 0 100 0 hi - -, f 5;
#X floatatom 51 19 5 0 127 0 range - -, f 5;
#X obj 3 117 random 100;
#X obj -16 -24 inlet;
#X obj 10 209 outlet;
#X obj 3 149 f;
#X obj 58 149 f;
#X obj 89 150 f;
#X obj 48 -23 inlet;
#X obj 100 -23 inlet;
#X obj 148 -24 inlet;
#X obj 188 -5 loadbang;
#X msg 181 33 0;
#X msg 228 31 100;
#X connect 0 0 5 0;
#X connect 1 0 7 0;
#X connect 2 0 9 0;
#X connect 3 0 10 0;
#X connect 4 0 1 3;
#X connect 5 0 8 0;
#X connect 6 0 0 0;
#X connect 8 0 1 0;
#X connect 9 0 1 1;
#X connect 10 0 1 2;
#X connect 11 0 4 0;
#X connect 12 0 2 0;
#X connect 13 0 3 0;
#X connect 14 0 15 0;
#X connect 14 0 16 0;
#X connect 15 0 2 0;
#X connect 16 0 3 0;
#X coords 0 1 100 -1 150 35 1 0 0;
#X restore 247 217 graph;
#N canvas 0 23 450 278 (subpatch) 0;
#X obj 2 1 bng 15 250 50 0 empty empty empty 17 7 0 10 -262144 -1 -1
;
#X obj 10 187 scale;
#X floatatom 110 3 5 0 100 0 lo - -, f 5;
#X floatatom 110 19 5 0 100 0 hi - -, f 5;
#X floatatom 51 19 5 0 127 0 range - -, f 5;
#X obj 3 117 random 100;
#X obj -16 -24 inlet;
#X obj 10 209 outlet;
#X obj 3 149 f;
#X obj 58 149 f;
#X obj 89 150 f;
#X obj 48 -23 inlet;
#X obj 100 -23 inlet;
#X obj 148 -24 inlet;
#X obj 188 -5 loadbang;
#X msg 181 33 0;
#X msg 228 31 100;
#X connect 0 0 5 0;
#X connect 1 0 7 0;
#X connect 2 0 9 0;
#X connect 3 0 10 0;
#X connect 4 0 1 3;
#X connect 5 0 8 0;
#X connect 6 0 0 0;
#X connect 8 0 1 0;
#X connect 9 0 1 1;
#X connect 10 0 1 2;
#X connect 11 0 4 0;
#X connect 12 0 2 0;
#X connect 13 0 3 0;
#X connect 14 0 15 0;
#X connect 14 0 16 0;
#X connect 15 0 2 0;
#X connect 16 0 3 0;
#X coords 0 1 100 -1 150 35 1 0 0;
#X restore 266 257 graph;
#X msg 294 193 200;
#N canvas 0 23 450 278 (subpatch) 0;
#X obj 2 1 bng 15 250 50 0 empty empty empty 17 7 0 10 -262144 -1 -1
;
#X obj 10 187 scale;
#X floatatom 110 3 5 0 100 0 lo - -, f 5;
#X floatatom 110 19 5 0 100 0 hi - -, f 5;
#X floatatom 51 19 5 0 127 0 range - -, f 5;
#X obj 3 117 random 100;
#X obj -16 -24 inlet;
#X obj 10 209 outlet;
#X obj 3 149 f;
#X obj 58 149 f;
#X obj 89 150 f;
#X obj 48 -23 inlet;
#X obj 100 -23 inlet;
#X obj 148 -24 inlet;
#X obj 188 -5 loadbang;
#X msg 181 33 0;
#X msg 228 31 100;
#X connect 0 0 5 0;
#X connect 1 0 7 0;
#X connect 2 0 9 0;
#X connect 3 0 10 0;
#X connect 4 0 1 3;
#X connect 5 0 8 0;
#X connect 6 0 0 0;
#X connect 8 0 1 0;
#X connect 9 0 1 1;
#X connect 10 0 1 2;
#X connect 11 0 4 0;
#X connect 12 0 2 0;
#X connect 13 0 3 0;
#X connect 14 0 15 0;
#X connect 14 0 16 0;
#X connect 15 0 2 0;
#X connect 16 0 3 0;
#X coords 0 1 100 -1 150 35 1 0 0;
#X restore 433 217 graph;
#N canvas 0 23 450 278 (subpatch) 0;
#X obj 2 1 bng 15 250 50 0 empty empty empty 17 7 0 10 -262144 -1 -1
;
#X obj 10 187 scale;
#X floatatom 110 3 5 0 100 0 lo - -, f 5;
#X floatatom 110 19 5 0 100 0 hi - -, f 5;
#X floatatom 51 19 5 0 127 0 range - -, f 5;
#X obj 3 117 random 100;
#X obj -16 -24 inlet;
#X obj 10 209 outlet;
#X obj 3 149 f;
#X obj 58 149 f;
#X obj 89 150 f;
#X obj 48 -23 inlet;
#X obj 100 -23 inlet;
#X obj 148 -24 inlet;
#X obj 188 -5 loadbang;
#X msg 181 33 0;
#X msg 228 31 100;
#X connect 0 0 5 0;
#X connect 1 0 7 0;
#X connect 2 0 9 0;
#X connect 3 0 10 0;
#X connect 4 0 1 3;
#X connect 5 0 8 0;
#X connect 6 0 0 0;
#X connect 8 0 1 0;
#X connect 9 0 1 1;
#X connect 10 0 1 2;
#X connect 11 0 4 0;
#X connect 12 0 2 0;
#X connect 13 0 3 0;
#X connect 14 0 15 0;
#X connect 14 0 16 0;
#X connect 15 0 2 0;
#X connect 16 0 3 0;
#X coords 0 1 100 -1 150 35 1 0 0;
#X restore 452 257 graph;
#N canvas 0 23 450 278 (subpatch) 0;
#X obj 2 1 bng 15 250 50 0 empty empty empty 17 7 0 10 -262144 -1 -1
;
#X obj 10 187 scale;
#X floatatom 110 3 5 0 100 0 lo - -, f 5;
#X floatatom 110 19 5 0 100 0 hi - -, f 5;
#X floatatom 51 19 5 0 127 0 range - -, f 5;
#X obj 3 117 random 100;
#X obj -16 -24 inlet;
#X obj 10 209 outlet;
#X obj 3 149 f;
#X obj 58 149 f;
#X obj 89 150 f;
#X obj 48 -23 inlet;
#X obj 100 -23 inlet;
#X obj 148 -24 inlet;
#X obj 188 -5 loadbang;
#X msg 181 33 0;
#X msg 228 31 100;
#X connect 0 0 5 0;
#X connect 1 0 7 0;
#X connect 2 0 9 0;
#X connect 3 0 10 0;
#X connect 4 0 1 3;
#X connect 5 0 8 0;
#X connect 6 0 0 0;
#X connect 8 0 1 0;
#X connect 9 0 1 1;
#X connect 10 0 1 2;
#X connect 11 0 4 0;
#X connect 12 0 2 0;
#X connect 13 0 3 0;
#X connect 14 0 15 0;
#X connect 14 0 16 0;
#X connect 15 0 2 0;
#X connect 16 0 3 0;
#X coords 0 1 100 -1 150 35 1 0 0;
#X restore 609 216 graph;
#N canvas 0 23 450 278 (subpatch) 0;
#X obj 2 1 bng 15 250 50 0 empty empty empty 17 7 0 10 -262144 -1 -1
;
#X obj 10 187 scale;
#X floatatom 110 3 5 0 100 0 lo - -, f 5;
#X floatatom 110 19 5 0 100 0 hi - -, f 5;
#X floatatom 51 19 5 0 127 0 range - -, f 5;
#X obj 3 117 random 100;
#X obj -16 -24 inlet;
#X obj 10 209 outlet;
#X obj 3 149 f;
#X obj 58 149 f;
#X obj 89 150 f;
#X obj 48 -23 inlet;
#X obj 100 -23 inlet;
#X obj 148 -24 inlet;
#X obj 188 -5 loadbang;
#X msg 181 33 0;
#X msg 228 31 100;
#X connect 0 0 5 0;
#X connect 1 0 7 0;
#X connect 2 0 9 0;
#X connect 3 0 10 0;
#X connect 4 0 1 3;
#X connect 5 0 8 0;
#X connect 6 0 0 0;
#X connect 8 0 1 0;
#X connect 9 0 1 1;
#X connect 10 0 1 2;
#X connect 11 0 4 0;
#X connect 12 0 2 0;
#X connect 13 0 3 0;
#X connect 14 0 15 0;
#X connect 14 0 16 0;
#X connect 15 0 2 0;
#X connect 16 0 3 0;
#X coords 0 1 100 -1 150 35 1 0 0;
#X restore 628 256 graph;
#X msg 656 192 127;
#X msg 480 193 1;
#X obj 367 123 t b b b b b;
#X obj 366 97 bng 15 250 50 0 empty empty empty 17 7 0 10 -262144 -1
-1;
#X obj 511 102 bng 15 250 50 0 empty empty empty 17 7 0 10 -262144
-1 -1;
#X obj 162 123 t 1 b b 1 b b 1 b b 1 b b;
#X floatatom 101 416 5 0 0 0 - - -, f 5;
#X floatatom 118 433 5 0 0 0 - - -, f 5;
#X floatatom 140 455 5 0 0 0 - - -, f 5;
#X floatatom 157 472 5 0 0 0 - - -, f 5;
#X floatatom 91 398 5 0 0 0 - - -, f 5;
#X floatatom 110 559 5 0 0 0 - - -, f 5;
#X floatatom 190 559 5 0 0 0 - - -, f 5;
#X floatatom 535 583 5 0 0 0 - - -, f 5;
#X floatatom 615 583 5 0 0 0 - - -, f 5;
#X obj 494 476 env~;
#X msg 372 532 30;
#X obj 249 560 * 0.1;
#X obj 299 540 * 0.1;
#X msg 737 192 50;
#X obj 159 60 t b b b;
#X obj 159 33 bng 15 250 50 0 empty empty empty 17 7 0 10 -262144 -1
-1;
#X obj 95 77 t b b;
#X msg 94 131 0;
#X msg 133 100 1;
#X obj 55 105 delay 500;
#X msg 698 191 50;
#X msg 430 506 60;
#X obj 311 615 outlet~;
#X obj 382 614 outlet~;
#X obj 137 312 r \$1_length;
#X obj 128 196 r \$1_length;
#X obj 235 312 r \$1_length;
#X obj 510 310 r \$1_length;
#X obj 613 311 r \$1_length;
#X obj 485 608 s \$1_length;
#X obj 50 31 r \$1_length;
#X obj 50 53 / 2;
#X obj 194 32 inlet;
#N canvas 0 23 450 278 (subpatch) 0;
#X obj 2 1 bng 15 250 50 0 empty empty empty 17 7 0 10 -262144 -1 -1
;
#X obj 10 187 scale;
#X floatatom 110 3 5 0 100 0 lo - -, f 5;
#X floatatom 110 19 5 0 100 0 hi - -, f 5;
#X floatatom 51 19 5 0 127 0 range - -, f 5;
#X obj 3 117 random 100;
#X obj -16 -24 inlet;
#X obj 10 209 outlet;
#X obj 3 149 f;
#X obj 58 149 f;
#X obj 89 150 f;
#X obj 48 -23 inlet;
#X obj 100 -23 inlet;
#X obj 148 -24 inlet;
#X obj 188 -5 loadbang;
#X msg 181 33 0;
#X msg 228 31 100;
#X connect 0 0 5 0;
#X connect 1 0 7 0;
#X connect 2 0 9 0;
#X connect 3 0 10 0;
#X connect 4 0 1 3;
#X connect 5 0 8 0;
#X connect 6 0 0 0;
#X connect 8 0 1 0;
#X connect 9 0 1 1;
#X connect 10 0 1 2;
#X connect 11 0 4 0;
#X connect 12 0 2 0;
#X connect 13 0 3 0;
#X connect 14 0 15 0;
#X connect 14 0 16 0;
#X connect 15 0 2 0;
#X connect 16 0 3 0;
#X coords 0 1 100 -1 150 35 1 0 0;
#X restore 730 380 graph;
#X obj 723 328 t b b;
#X obj 732 497 print;
#X obj 367 471 loadbang;
#X msg 769 352 112;
#X obj 480 505 * 0.01;
#X obj 367 584 sampler, f 13;
#X obj 568 482 scale, f 13;
#X obj 568 504 + 50;
#X msg 623 436 0;
#X msg 632 451 100;
#X msg 642 461 24;
#X connect 0 0 9 0;
#X connect 0 0 10 0;
#X connect 1 0 2 0;
#X connect 2 0 35 0;
#X connect 2 0 41 0;
#X connect 3 0 4 0;
#X connect 4 0 36 0;
#X connect 4 0 42 0;
#X connect 5 0 6 0;
#X connect 6 0 38 0;
#X connect 6 0 70 0;
#X connect 7 0 39 0;
#X connect 9 0 65 0;
#X connect 9 0 69 4;
#X connect 11 0 1 2;
#X connect 11 0 30 0;
#X connect 11 1 1 4;
#X connect 11 1 32 0;
#X connect 11 2 1 5;
#X connect 11 2 33 0;
#X connect 12 0 3 2;
#X connect 12 1 3 4;
#X connect 12 2 3 5;
#X connect 13 0 7 2;
#X connect 13 1 7 4;
#X connect 13 2 7 5;
#X connect 14 0 5 2;
#X connect 14 1 5 4;
#X connect 14 2 5 5;
#X connect 15 0 1 1;
#X connect 15 0 34 0;
#X connect 16 0 1 3;
#X connect 16 0 31 0;
#X connect 17 0 3 1;
#X connect 18 0 3 3;
#X connect 19 0 17 1;
#X connect 19 0 18 1;
#X connect 20 0 7 1;
#X connect 21 0 7 3;
#X connect 22 0 5 1;
#X connect 23 0 5 3;
#X connect 24 0 22 1;
#X connect 24 0 23 1;
#X connect 25 0 20 1;
#X connect 25 0 21 1;
#X connect 26 0 19 0;
#X connect 26 1 25 0;
#X connect 26 2 24 0;
#X connect 26 3 50 0;
#X connect 26 4 43 0;
#X connect 27 0 26 0;
#X connect 28 0 64 0;
#X connect 29 0 1 0;
#X connect 29 1 15 0;
#X connect 29 2 16 0;
#X connect 29 3 3 0;
#X connect 29 4 17 0;
#X connect 29 5 18 0;
#X connect 29 6 7 0;
#X connect 29 7 20 0;
#X connect 29 8 21 0;
#X connect 29 9 5 0;
#X connect 29 10 22 0;
#X connect 29 11 23 0;
#X connect 39 0 37 0;
#X connect 39 0 68 0;
#X connect 40 0 69 1;
#X connect 41 0 69 0;
#X connect 42 0 69 1;
#X connect 43 0 22 3;
#X connect 43 0 23 3;
#X connect 44 0 46 0;
#X connect 44 1 27 0;
#X connect 44 2 28 0;
#X connect 45 0 44 0;
#X connect 46 0 49 0;
#X connect 46 1 48 0;
#X connect 47 0 29 0;
#X connect 48 0 29 0;
#X connect 49 0 47 0;
#X connect 50 0 22 2;
#X connect 50 0 23 2;
#X connect 51 0 69 3;
#X connect 54 0 11 0;
#X connect 55 0 15 1;
#X connect 55 0 16 1;
#X connect 56 0 12 0;
#X connect 57 0 13 0;
#X connect 58 0 14 0;
#X connect 60 0 61 0;
#X connect 61 0 49 1;
#X connect 62 0 44 0;
#X connect 63 0 0 0;
#X connect 64 0 63 0;
#X connect 64 1 67 0;
#X connect 66 0 40 0;
#X connect 66 0 51 0;
#X connect 66 0 72 0;
#X connect 66 0 73 0;
#X connect 66 0 74 0;
#X connect 67 0 63 1;
#X connect 68 0 69 2;
#X connect 69 0 52 0;
#X connect 69 1 53 0;
#X connect 69 2 8 0;
#X connect 69 2 59 0;
#X connect 70 0 71 0;
#X connect 71 0 69 3;
#X connect 72 0 70 1;
#X connect 73 0 70 2;
#X connect 74 0 70 3;
