#N canvas 455 92 544 404 10;
#X obj 142 230 sampler, f 14;
#X obj 92 190 *;
#X obj 352 248 print;
#X msg 351 210 samples/\$1.wav;
#X obj 91 98 t b b b b b;
#X obj 91 62 bng 15 250 50 0 empty empty empty 17 7 0 10 -262144 -1
-1;
#X obj 138 158 envlp 1000 -1 -1;
#X obj 261 153 envlp 1000 -1 -1;
#X floatatom 87 311 5 0 0 0 - - -, f 5;
#X floatatom 133 309 5 0 0 0 - - -, f 5;
#X obj 206 320 env~;
#X floatatom 199 353 5 0 0 0 - - -, f 5;
#X floatatom 261 306 5 0 0 0 - - -, f 5;
#X obj 91 132 envlp 1000 0 -1;
#X obj 238 288 / 10;
#X obj 238 33 envlp~ 1000 2 0;
#X obj 78 19 inlet;
#X obj 97 276 outlet~;
#X obj 159 274 outlet~;
#X obj 446 307 outlet;
#X obj 331 345 min 10000;
#X obj 331 323 random;
#X obj 330 301 t b f;
#X obj 258 196 + 36;
#X obj 260 175 * 48;
#X obj 132 181 * 500;
#X obj 351 185 random 128;
#X connect 0 0 17 0;
#X connect 0 1 18 0;
#X connect 0 2 22 0;
#X connect 1 0 0 0;
#X connect 1 0 8 0;
#X connect 3 0 2 0;
#X connect 3 0 0 4;
#X connect 4 0 13 0;
#X connect 4 1 6 0;
#X connect 4 2 15 0;
#X connect 4 3 7 0;
#X connect 4 4 26 0;
#X connect 5 0 4 0;
#X connect 6 0 25 0;
#X connect 7 0 24 0;
#X connect 10 0 11 0;
#X connect 13 0 1 0;
#X connect 14 0 1 1;
#X connect 15 0 10 0;
#X connect 15 0 0 2;
#X connect 16 0 5 0;
#X connect 20 0 19 0;
#X connect 20 0 14 0;
#X connect 20 0 7 1;
#X connect 20 0 15 1;
#X connect 20 0 6 1;
#X connect 20 0 4 0;
#X connect 21 0 20 0;
#X connect 22 0 21 0;
#X connect 22 1 21 1;
#X connect 23 0 0 3;
#X connect 23 0 12 0;
#X connect 24 0 23 0;
#X connect 25 0 0 1;
#X connect 25 0 9 0;
#X connect 26 0 3 0;
