#N canvas 553 23 813 671 10;
#X obj 29 570 hip~ 5;
#X floatatom 79 98 0 0 100 0 - - -;
#X obj 79 126 * 441;
#X obj 30 442 +~ 1;
#X text 121 29 <-- chunk size (100ths of a second);
#X obj 30 520 *~;
#X obj 36 273 line~;
#X obj 36 223 * 441;
#X floatatom 36 198 0 0 100 0 - - -;
#X obj 36 248 pack 0 100;
#X text 60 55 <-- read point in 100ths of a second;
#X obj 30 471 +~;
#X obj 86 470 samphold~;
#X obj 30 370 samphold~;
#X obj 30 417 *~;
#X floatatom 408 164 0 0 0 0 - - -;
#X obj 121 126 * 0.01;
#X obj 419 244 t b f;
#X obj 408 268 /;
#X obj 408 141 loadbang;
#X obj 195 455 -~ 0.5;
#X obj 195 479 *~ 0.5;
#X obj 195 502 cos~;
#X text 486 684 updated for Pd version 0.37;
#X obj 408 189 expr pow(2 \, $f1/120);
#X text 556 192 speed change;
#X obj 408 292 phasor~;
#X text 485 143 TWO OVERLAPPING SAMPLE READ ELEMENTS;
#N canvas 285 299 660 275 table 1;
#N canvas 0 23 450 300 (subpatch) 0;
#X array \$0-table22-2 22029 float 0;
#X coords 0 1.02 22028 -1.02 200 130 1 0 0;
#X restore 419 33 graph;
#X obj 41 203 soundfiler;
#N canvas 0 22 450 300 (subpatch) 0;
#X array \$0-table22-1 22029 float 0;
#X coords 0 1.02 22028 -1.02 200 130 1 0 0;
#X restore 210 32 graph;
#X obj 41 225 / 44.1;
#X obj 41 247 outlet;
#X obj 41 32 inlet;
#X obj 73 82 \$0;
#X obj 41 55 t a b;
#X obj 41 112 pack s f;
#X obj 104 229 print;
#X msg 41 175 read -resize \$1 \$2-table22-1 \$2-table22-2;
#X connect 1 0 3 0;
#X connect 1 1 9 0;
#X connect 3 0 4 0;
#X connect 5 0 7 0;
#X connect 6 0 8 1;
#X connect 7 0 8 0;
#X connect 7 1 6 0;
#X connect 8 0 10 0;
#X connect 10 0 1 0;
#X restore 573 437 pd table;
#X obj 495 311 +~ 0.5;
#X obj 496 337 wrap~;
#X obj 284 453 +~ 1;
#X obj 284 531 *~;
#X obj 284 482 +~;
#X obj 339 481 samphold~;
#X obj 284 381 samphold~;
#X obj 284 428 *~;
#X obj 449 466 -~ 0.5;
#X obj 449 490 *~ 0.5;
#X obj 449 513 cos~;
#X obj 29 549 +~;
#X text 425 32 <-- transposition \, halftones/10;
#X text 446 267 loop frequency;
#X text 556 298 second phase signal;
#X text 556 318 out of phase from;
#X text 555 339 first one;
#X text 39 353 copy 1;
#X text 285 361 copy 2;
#X obj 30 683 outlet~;
#X obj 378 84 * 10;
#X obj 378 56 - 60;
#X obj 378 32 inlet;
#X obj 76 29 inlet;
#X obj 15 53 inlet;
#X obj 29 606 *~;
#X obj 93 602 hip~ 5;
#X obj 94 552 *~;
#X obj 93 581 +~;
#X obj 93 638 *~;
#X obj 30 496 tabread4~ \$0-table22-1;
#X obj 94 528 tabread4~ \$0-table22-2;
#X obj 95 682 outlet~;
#X obj 327 566 *~;
#X obj 284 507 tabread4~ \$0-table22-1;
#X obj 327 542 tabread4~ \$0-table22-2;
#X obj 573 491 outlet;
#X text 621 490 <-- length in millis;
#X obj 493 64 inlet;
#X text 537 62 <-- path/to/sample.wav;
#X msg 257 146 30;
#X text 216 80 <-- gain 0-1;
#X obj 171 79 inlet~;
#X connect 0 0 54 0;
#X connect 1 0 2 0;
#X connect 1 0 16 0;
#X connect 2 0 35 0;
#X connect 2 0 13 0;
#X connect 3 0 11 0;
#X connect 5 0 40 0;
#X connect 6 0 12 0;
#X connect 6 0 34 0;
#X connect 7 0 9 0;
#X connect 8 0 7 0;
#X connect 9 0 6 0;
#X connect 11 0 59 0;
#X connect 11 0 60 0;
#X connect 12 0 11 1;
#X connect 13 0 14 0;
#X connect 14 0 3 0;
#X connect 15 0 24 0;
#X connect 16 0 17 0;
#X connect 17 0 18 0;
#X connect 17 1 18 1;
#X connect 18 0 26 0;
#X connect 19 0 15 0;
#X connect 19 0 69 0;
#X connect 20 0 21 0;
#X connect 21 0 22 0;
#X connect 22 0 5 1;
#X connect 22 0 56 1;
#X connect 24 0 18 0;
#X connect 26 0 29 0;
#X connect 26 0 13 1;
#X connect 26 0 12 1;
#X connect 26 0 20 0;
#X connect 26 0 14 1;
#X connect 28 0 65 0;
#X connect 29 0 30 0;
#X connect 30 0 37 0;
#X connect 30 0 34 1;
#X connect 30 0 36 1;
#X connect 30 0 35 1;
#X connect 31 0 33 0;
#X connect 32 0 40 1;
#X connect 33 0 63 0;
#X connect 33 0 64 0;
#X connect 34 0 33 1;
#X connect 35 0 36 0;
#X connect 36 0 31 0;
#X connect 37 0 38 0;
#X connect 38 0 39 0;
#X connect 39 0 32 1;
#X connect 39 0 62 1;
#X connect 40 0 0 0;
#X connect 49 0 15 0;
#X connect 50 0 49 0;
#X connect 51 0 50 0;
#X connect 52 0 1 0;
#X connect 53 0 8 0;
#X connect 54 0 48 0;
#X connect 55 0 58 0;
#X connect 56 0 57 0;
#X connect 57 0 55 0;
#X connect 58 0 61 0;
#X connect 59 0 5 0;
#X connect 60 0 56 0;
#X connect 62 0 57 1;
#X connect 63 0 32 0;
#X connect 64 0 62 0;
#X connect 67 0 28 0;
#X connect 69 0 1 0;
#X connect 71 0 54 1;
#X connect 71 0 58 1;
