#N canvas 321 163 427 408 10;
#X obj 120 25 inlet;
#X obj 163 51 inlet;
#X obj 176 194 -;
#X obj 209 76 inlet;
#X obj 176 226 *;
#X obj 120 257 *;
#X obj 259 102 inlet;
#X obj 164 333 *;
#X obj 164 355 outlet;
#X text 305 101 actual scale;
#X obj 163 73 / 100;
#X obj 209 98 / 100;
#X text 254 77 high value %;
#X text 207 52 low value % (0-100);
#X text 164 25 number to scale (0-100);
#X obj 120 51 / 100;
#X obj 120 146 + 0;
#X obj 162 143 t b f;
#X obj 162 165 f 1;
#X connect 0 0 15 0;
#X connect 1 0 10 0;
#X connect 2 0 4 0;
#X connect 3 0 11 0;
#X connect 4 0 5 1;
#X connect 5 0 7 0;
#X connect 6 0 7 1;
#X connect 7 0 8 0;
#X connect 10 0 16 1;
#X connect 11 0 4 1;
#X connect 15 0 16 0;
#X connect 16 0 5 0;
#X connect 16 0 17 0;
#X connect 17 0 18 0;
#X connect 17 1 2 1;
#X connect 18 0 2 0;
