#N canvas 0 23 450 300 10;
#X obj 124 98 random;
#X obj 125 183 random;
#X obj 89 154 t f b f;
#X obj 89 125 -;
#X obj 88 69 t f f b f;
#X obj 95 214 -;
#X obj 205 273 outlet;
#X obj 152 273 outlet;
#X obj 100 272 outlet;
#X obj 81 23 inlet;
#X connect 0 0 3 1;
#X connect 0 0 6 0;
#X connect 1 0 5 1;
#X connect 1 0 7 0;
#X connect 2 0 5 0;
#X connect 2 1 1 0;
#X connect 2 2 1 1;
#X connect 3 0 2 0;
#X connect 4 0 3 0;
#X connect 4 2 0 0;
#X connect 4 3 0 1;
#X connect 5 0 8 0;
#X connect 9 0 4 0;
